<?xml version="1.0" standalone="no"?>
<!DOCTYPE svg PUBLIC "-//W3C//DTD SVG 20010904//EN"
 "http://www.w3.org/TR/2001/REC-SVG-20010904/DTD/svg10.dtd">
<svg version="1.0" xmlns="http://www.w3.org/2000/svg"
 width="700.000000pt" height="700.000000pt" viewBox="0 0 700.000000 700.000000"
 preserveAspectRatio="xMidYMid meet">
<metadata>
Created by potrace 1.14, written by Peter Selinger 2001-2017
</metadata>
<g transform="translate(0.000000,700.000000) scale(0.100000,-0.100000)"
fill="#000000" stroke="none">
<path d="M3318 6980 c-164 -36 -313 -116 -432 -234 -63 -62 -157 -193 -171
-236 -8 -25 -20 -25 -53 -1 -75 52 -236 114 -333 128 -62 9 -227 10 -279 1
-414 -68 -723 -420 -734 -836 l-3 -114 -104 -3 c-161 -4 -304 -45 -436 -126
-80 -48 -83 -50 -172 -140 -110 -111 -186 -247 -227 -409 -19 -71 -24 -248
-11 -339 14 -97 76 -258 128 -333 11 -14 19 -30 19 -35 0 -4 -21 -19 -48 -33
-186 -97 -346 -284 -412 -483 -38 -117 -48 -186 -45 -307 5 -242 94 -445 264
-609 56 -54 184 -144 221 -156 11 -4 20 -10 20 -14 0 -4 -20 -42 -44 -84 -42
-75 -91 -205 -102 -270 -10 -67 -12 -244 -3 -292 6 -28 12 -60 15 -73 29 -142
121 -302 245 -422 166 -162 369 -244 604 -245 l90 0 0 -90 c1 -192 48 -342
155 -500 56 -82 168 -188 255 -242 66 -41 202 -97 262 -108 16 -2 52 -9 81
-15 52 -10 216 -7 277 5 73 14 203 62 272 102 42 24 79 43 83 43 3 0 14 -17
24 -37 71 -151 245 -316 411 -392 148 -69 323 -92 505 -69 167 22 361 123 489
257 54 56 144 184 156 221 4 11 10 20 14 20 4 0 42 -20 85 -44 81 -46 209 -92
292 -104 27 -4 99 -7 159 -6 222 2 428 89 586 246 64 64 76 77 116 134 42 59
100 189 123 274 15 57 23 119 25 193 l2 110 99 2 c178 5 314 44 449 130 190
120 326 307 385 525 25 91 32 253 17 358 -11 83 -55 204 -103 289 -24 42 -44
79 -44 82 0 3 21 17 48 31 233 121 409 368 451 635 21 128 -5 368 -48 453 -5
9 -23 46 -41 82 -70 141 -201 280 -331 352 -43 24 -79 48 -79 54 0 6 9 23 21
37 43 55 104 210 125 317 3 14 6 76 8 138 8 306 -144 589 -404 754 -145 92
-290 133 -470 133 l-85 0 0 90 c-1 151 -20 238 -83 375 -83 180 -276 363 -454
432 -122 46 -191 60 -313 61 -66 1 -142 -2 -170 -6 -97 -16 -255 -78 -327
-128 -14 -11 -30 -19 -35 -19 -4 0 -19 21 -33 48 -54 104 -170 235 -268 304
-69 48 -191 104 -277 128 -111 31 -288 35 -407 10z m317 -440 c187 -64 312
-245 299 -433 -7 -96 -106 -533 -168 -737 -8 -25 -21 -70 -30 -100 -8 -30 -41
-140 -72 -245 -31 -104 -62 -210 -69 -235 -7 -25 -23 -76 -35 -115 -12 -38
-27 -91 -35 -117 -20 -73 -27 -78 -41 -28 -7 25 -25 83 -39 130 -61 197 -169
558 -180 604 -2 10 -20 73 -39 140 -83 291 -157 617 -161 711 -7 192 124 372
315 429 65 20 192 18 255 -4z m-1314 -350 c104 -35 184 -99 235 -186 46 -78
162 -443 230 -719 1 -5 21 -84 44 -175 37 -146 103 -420 115 -475 4 -19 48
-209 61 -265 5 -21 4 -23 -8 -10 -7 8 -38 37 -68 64 -189 170 -565 532 -795
766 -259 264 -334 358 -365 457 -34 109 -23 229 29 331 47 92 156 183 251 211
25 8 50 15 55 16 38 12 163 3 216 -15z m2626 -1 c150 -50 266 -182 294 -335
11 -58 7 -160 -7 -199 -31 -88 -79 -158 -184 -273 -144 -157 -523 -532 -780
-772 -73 -69 -161 -151 -194 -182 -34 -32 -66 -58 -72 -58 -8 0 -7 17 2 58 8
31 32 136 55 232 146 631 300 1182 369 1320 51 100 181 201 281 217 19 2 36 7
39 10 11 11 148 -2 197 -18z m-3567 -968 c64 -24 138 -80 274 -205 94 -87 443
-436 563 -562 32 -34 117 -124 189 -200 72 -77 148 -159 170 -184 21 -24 48
-53 59 -62 20 -18 19 -18 -10 -12 -16 3 -48 11 -70 16 -22 6 -48 12 -58 14
-132 25 -840 200 -991 245 -55 16 -109 31 -120 33 -47 10 -285 90 -343 116
-290 131 -340 534 -90 731 89 71 175 99 292 95 52 -2 99 -11 135 -25z m4493
13 c368 -95 454 -569 142 -784 -51 -35 -301 -120 -559 -190 -104 -29 -196 -53
-205 -55 -9 -2 -137 -34 -286 -70 -148 -37 -277 -68 -285 -70 -23 -5 -54 -12
-194 -45 -71 -17 -130 -29 -132 -28 -1 2 27 35 64 74 37 39 119 127 182 195
127 137 485 502 625 639 168 164 298 276 356 305 79 41 199 53 292 29z m-2212
-1099 c119 -30 206 -81 299 -175 134 -133 193 -274 193 -460 1 -480 -494 -795
-931 -594 -280 130 -434 455 -358 754 55 215 236 405 446 469 101 31 245 33
351 6z m-2640 -220 c41 -9 95 -20 120 -25 112 -22 415 -102 669 -177 46 -14
91 -26 100 -28 8 -2 114 -33 235 -70 121 -37 253 -77 293 -88 39 -12 72 -24
72 -27 0 -3 -33 -15 -73 -27 -39 -12 -192 -57 -339 -102 -609 -183 -1045 -293
-1210 -305 -176 -13 -363 113 -424 287 -75 213 24 449 229 542 99 46 183 51
328 20z m5229 3 c149 -46 266 -172 300 -322 42 -187 -44 -381 -207 -473 -117
-65 -202 -72 -394 -33 -104 22 -398 93 -454 111 -16 5 -142 41 -280 79 -137
39 -261 75 -275 79 -14 5 -118 37 -232 72 -115 34 -208 65 -208 69 0 4 71 28
158 55 86 26 177 54 202 62 335 108 962 271 1220 316 35 7 128 -2 170 -15z
m-3650 -965 c-30 -31 -59 -62 -65 -68 -70 -83 -534 -563 -730 -755 -318 -312
-396 -365 -551 -377 -125 -10 -236 30 -329 118 -179 169 -181 451 -4 628 65
66 177 113 466 197 127 36 666 178 722 189 9 2 66 15 126 29 271 65 401 95
410 95 5 1 -15 -25 -45 -56z m2030 -7 c129 -30 318 -75 420 -101 102 -26 192
-48 200 -50 27 -6 175 -46 206 -56 17 -5 40 -11 52 -14 104 -20 433 -132 496
-169 152 -89 231 -273 196 -456 -40 -209 -246 -365 -459 -347 -155 13 -227 64
-566 397 -231 228 -408 410 -775 803 -46 49 -51 58 -30 53 14 -4 131 -31 260
-60z m-1626 -323 c-3 -16 -10 -46 -16 -68 -5 -22 -12 -51 -14 -65 -3 -14 -7
-33 -10 -42 -3 -9 -6 -25 -8 -35 -3 -10 -12 -49 -21 -88 -9 -38 -19 -81 -21
-95 -3 -14 -10 -43 -16 -65 -5 -22 -11 -47 -13 -55 -7 -38 -149 -586 -176
-680 -99 -346 -137 -436 -225 -523 -38 -37 -136 -92 -184 -103 -113 -24 -227
-11 -311 35 -158 87 -240 227 -235 401 5 137 39 204 186 365 177 194 465 480
800 795 79 74 171 161 205 192 33 32 61 58 62 58 1 0 0 -12 -3 -27z m1096 -73
c9 -8 77 -72 151 -141 468 -440 793 -771 908 -923 79 -105 106 -225 77 -350
-49 -208 -228 -348 -436 -341 -86 4 -113 10 -188 47 -70 35 -163 126 -188 186
-30 73 -86 240 -126 377 -38 134 -231 895 -242 952 -2 15 -16 80 -31 143 -15
63 -29 124 -31 134 -2 14 10 7 43 -25 25 -24 53 -51 63 -59z m-589 -67 c6 -16
24 -71 39 -123 16 -52 40 -133 55 -180 14 -47 28 -92 30 -100 3 -8 41 -141 85
-295 131 -455 208 -780 214 -900 6 -112 -39 -227 -121 -312 -113 -117 -268
-160 -426 -118 -193 51 -336 244 -322 435 13 168 141 667 336 1305 45 149 84
280 87 293 6 29 10 28 23 -5z"/>
</g>
</svg>
